# xmcd
#
# Track frame offsets:
#	150
#	12301
#	31211
#	44625
#	57775
#	73898
#	87891
#	106543
#	121259
#	138638
#	154470
#	165071
#	179401
#	196349
#	213785
#	229148
#	242695
#
# Disc length: 3461 seconds
#
# Revision: 5
# Processed by: cddbd v1.5.2PL0 Copyright (c) Steve Scherf et al.
# Submitted via: audiograbber 1.83.01
#
DISCID=e00d8311
DTITLE=Neil Diamond - 50th Anniversary Collection [CD 2)
DYEAR=2017
DGENRE=Singer/Songwriter
TTITLE0=Done Too Soon
TTITLE1=Soolaimon
TTITLE2=Cracklin' Rosie
TTITLE3=Crunchy Granola Suite
TTITLE4=I Am.... I Said
TTITLE5=Stones
TTITLE6=Morningside
TTITLE7=Song Sung Blue
TTITLE8=Play Me
TTITLE9=Be
TTITLE10=Skybird
TTITLE11=Lonely Looking Sky
TTITLE12=I've Been This Way Before
TTITLE13=Longfellow Serenade
TTITLE14=Beautiful Noise
TTITLE15=Street Life
TTITLE16=If You Know What I Mean
EXTD=
EXTT0=
EXTT1=
EXTT2=
EXTT3=
EXTT4=
EXTT5=
EXTT6=
EXTT7=
EXTT8=
EXTT9=
EXTT10=
EXTT11=
EXTT12=
EXTT13=
EXTT14=
EXTT15=
EXTT16=
PLAYORDER=
